<svg width="200" height="200" viewBox="0 0 200 200" fill="none" xmlns="http://www.w3.org/2000/svg">
  <!-- Outer crescent -->
  <path d="M100 180C144.183 180 180 144.183 180 100C180 55.8172 144.183 20 100 20C55.8172 20 20 55.8172 20 100C20 144.183 55.8172 180 100 180Z" fill="url(#outerGradient)" />
  <path d="M100 160C133.137 160 160 133.137 160 100C160 66.8629 133.137 40 100 40C66.8629 40 40 66.8629 40 100C40 133.137 66.8629 160 100 160Z" fill="black" />
  
  <!-- Inner circle -->
  <circle cx="120" cy="100" r="40" fill="url(#innerGradient)" />
  
  <!-- Gradient definitions -->
  <defs>
    <linearGradient id="outerGradient" x1="20" y1="100" x2="180" y2="100" gradientUnits="userSpaceOnUse">
      <stop offset="0" stop-color="#0CC7FA"/>
      <stop offset="1" stop-color="#4D66E5"/>
    </linearGradient>
    <linearGradient id="innerGradient" x1="80" y1="100" x2="160" y2="100" gradientUnits="userSpaceOnUse">
      <stop offset="0" stop-color="#0CC7FA"/>
      <stop offset="1" stop-color="#4D66E5"/>
    </linearGradient>
  </defs>
</svg> 