<svg width="600" height="400" xmlns="http://www.w3.org/2000/svg">
  <rect width="600" height="400" fill="#f0f4f8" />
  <rect x="20" y="20" width="560" height="360" fill="white" stroke="#3B82F6" stroke-width="2" rx="10" />
  <text x="300" y="100" font-family="Arial" font-size="24" text-anchor="middle" fill="#3B82F6" font-weight="bold">Google SDK</text>
  <text x="300" y="130" font-family="Arial" font-size="16" text-anchor="middle" fill="#64748b">Workspace & Cloud Integration</text>
  <text x="300" y="200" font-family="Arial" font-size="16" text-anchor="middle" fill="#64748b">NAYAFlOW Placeholder Image</text>
  <g fill="none" stroke="#3B82F6" stroke-width="2">
    <rect x="80" y="240" width="60" height="50" rx="5" />
    <rect x="170" y="240" width="60" height="50" rx="5" />
    <rect x="270" y="240" width="60" height="50" rx="5" />
    <rect x="360" y="240" width="60" height="50" rx="5" />
    <rect x="450" y="240" width="60" height="50" rx="5" />
    <circle cx="300" cy="320" r="25" fill="#3B82F6" opacity="0.1" />
    <line x1="110" y1="290" x2="275" y2="320" />
    <line x1="200" y1="290" x2="275" y2="320" />
    <line x1="300" y1="290" x2="300" y2="295" />
    <line x1="390" y1="290" x2="325" y2="320" />
    <line x1="480" y1="290" x2="325" y2="320" />
  </g>
  <text x="110" y="270" font-family="Arial" font-size="9" text-anchor="middle" fill="#3B82F6">Gmail</text>
  <text x="200" y="270" font-family="Arial" font-size="9" text-anchor="middle" fill="#3B82F6">Calendar</text>
  <text x="300" y="270" font-family="Arial" font-size="9" text-anchor="middle" fill="#3B82F6">Sheets</text>
  <text x="390" y="270" font-family="Arial" font-size="9" text-anchor="middle" fill="#3B82F6">Drive</text>
  <text x="480" y="270" font-family="Arial" font-size="9" text-anchor="middle" fill="#3B82F6">Cloud</text>
  <text x="300" y="325" font-family="Arial" font-size="10" text-anchor="middle" fill="#3B82F6">API Hub</text>
</svg>
