<svg width="600" height="400" xmlns="http://www.w3.org/2000/svg">
  <rect width="600" height="400" fill="#f0f4f8" />
  <rect x="20" y="20" width="560" height="360" fill="white" stroke="#3B82F6" stroke-width="2" rx="10" />
  <text x="300" y="100" font-family="Arial" font-size="24" text-anchor="middle" fill="#3B82F6" font-weight="bold">OpenAI SDK</text>
  <text x="300" y="130" font-family="Arial" font-size="16" text-anchor="middle" fill="#64748b">AI Model Integration</text>
  <text x="300" y="200" font-family="Arial" font-size="16" text-anchor="middle" fill="#64748b">NAYAFlOW Placeholder Image</text>
  <g fill="none" stroke="#3B82F6" stroke-width="2">
    <circle cx="300" cy="280" r="50" fill="#3B82F6" opacity="0.1" />
    <circle cx="200" cy="250" r="25" />
    <circle cx="400" cy="250" r="25" />
    <circle cx="200" cy="310" r="25" />
    <circle cx="400" cy="310" r="25" />
    <line x1="225" y1="250" x2="275" y2="260" />
    <line x1="375" y1="250" x2="325" y2="260" />
    <line x1="225" y1="310" x2="275" y2="300" />
    <line x1="375" y1="310" x2="325" y2="300" />
    <path d="M 280 270 Q 300 250 320 270" stroke="#3B82F6" stroke-width="2" fill="none" />
    <path d="M 280 290 Q 300 310 320 290" stroke="#3B82F6" stroke-width="2" fill="none" />
  </g>
  <text x="200" y="255" font-family="Arial" font-size="9" text-anchor="middle" fill="#3B82F6">GPT</text>
  <text x="400" y="255" font-family="Arial" font-size="9" text-anchor="middle" fill="#3B82F6">DALL-E</text>
  <text x="200" y="315" font-family="Arial" font-size="9" text-anchor="middle" fill="#3B82F6">Whisper</text>
  <text x="400" y="315" font-family="Arial" font-size="9" text-anchor="middle" fill="#3B82F6">Embeddings</text>
  <text x="300" y="285" font-family="Arial" font-size="10" text-anchor="middle" fill="#3B82F6">AI Engine</text>
</svg>
