<svg width="600" height="400" xmlns="http://www.w3.org/2000/svg">
  <rect width="600" height="400" fill="#f0f4f8" />
  <rect x="20" y="20" width="560" height="360" fill="white" stroke="#3B82F6" stroke-width="2" rx="10" />
  <text x="300" y="100" font-family="Arial" font-size="24" text-anchor="middle" fill="#3B82F6" font-weight="bold">Sales Automation</text>
  <text x="300" y="130" font-family="Arial" font-size="16" text-anchor="middle" fill="#64748b">End-to-End Sales Process</text>
  <text x="300" y="200" font-family="Arial" font-size="16" text-anchor="middle" fill="#64748b">NAYAFlOW Placeholder Image</text>
  <g fill="none" stroke="#3B82F6" stroke-width="2">
    <rect x="60" y="240" width="70" height="40" rx="5" />
    <rect x="160" y="240" width="70" height="40" rx="5" />
    <rect x="260" y="240" width="70" height="40" rx="5" />
    <rect x="360" y="240" width="70" height="40" rx="5" />
    <rect x="460" y="240" width="70" height="40" rx="5" />
    <line x1="130" y1="260" x2="160" y2="260" />
    <line x1="230" y1="260" x2="260" y2="260" />
    <line x1="330" y1="260" x2="360" y2="260" />
    <line x1="430" y1="260" x2="460" y2="260" />
    <polygon points="150,255 160,260 150,265" fill="#3B82F6" />
    <polygon points="250,255 260,260 250,265" fill="#3B82F6" />
    <polygon points="350,255 360,260 350,265" fill="#3B82F6" />
    <polygon points="450,255 460,260 450,265" fill="#3B82F6" />
    <path d="M 95 300 Q 300 320 505 300" stroke="#3B82F6" stroke-width="2" fill="none" stroke-dasharray="5,5" />
  </g>
  <text x="95" y="265" font-family="Arial" font-size="9" text-anchor="middle" fill="#3B82F6">Lead Gen</text>
  <text x="195" y="265" font-family="Arial" font-size="9" text-anchor="middle" fill="#3B82F6">Qualify</text>
  <text x="295" y="265" font-family="Arial" font-size="9" text-anchor="middle" fill="#3B82F6">Nurture</text>
  <text x="395" y="265" font-family="Arial" font-size="9" text-anchor="middle" fill="#3B82F6">Convert</text>
  <text x="495" y="265" font-family="Arial" font-size="9" text-anchor="middle" fill="#3B82F6">Retain</text>
  <text x="300" y="315" font-family="Arial" font-size="10" text-anchor="middle" fill="#3B82F6">Analytics & Optimization</text>
</svg>
